# Blender v2.77 (sub 0) OBJ File: 'arrow-up.blend'
# www.blender.org
o Cone
v 1.396729 26.322376 -1.152697
v 1.396729 28.322376 -0.152697
v 1.591820 26.322376 -1.133483
v 1.779414 26.322376 -1.076577
v 1.952300 26.322376 -0.984167
v 2.103836 26.322376 -0.859804
v 2.228199 26.322376 -0.708268
v 2.320609 26.322376 -0.535381
v 2.377515 26.322376 -0.347788
v 2.396729 26.322376 -0.152697
v 2.377515 26.322376 0.042393
v 2.320609 26.322376 0.229986
v 2.228199 26.322376 0.402873
v 2.103836 26.322376 0.554409
v 1.952300 26.322376 0.678772
v 1.779414 26.322376 0.771182
v 1.591820 26.322376 0.828088
v 1.396729 26.322376 0.847303
v 1.201639 26.322376 0.828088
v 1.014046 26.322376 0.771182
v 0.841159 26.322376 0.678773
v 0.689622 26.322376 0.554410
v 0.565260 26.322376 0.402873
v 0.472850 26.322376 0.229986
v 0.415944 26.322376 0.042393
v 0.396729 26.322376 -0.152697
v 0.415944 26.322376 -0.347788
v 0.472851 26.322376 -0.535381
v 0.565261 26.322376 -0.708269
v 0.689624 26.322376 -0.859805
v 0.841161 26.322376 -0.984168
v 1.014048 26.322376 -1.076577
v 1.201641 26.322376 -1.133483
vt 0.6538 0.5031
vt 0.7320 1.0000
vt 0.6120 0.5115
vt 0.5706 0.5242
vt 0.5311 0.5404
vt 0.4951 0.5598
vt 0.4639 0.5814
vt 0.4388 0.6045
vt 0.4388 0.3739
vt 0.7579 0.0000
vt 0.4623 0.3987
vt 0.4920 0.4225
vt 0.5266 0.4443
vt 0.5649 0.4634
vt 0.6053 0.4789
vt 0.6464 0.4903
vt 0.6866 0.4971
vt 0.7242 0.4991
vt 0.7579 0.4962
vt 0.0000 0.8440
vt 0.2932 0.4485
vt 0.0251 0.8671
vt 0.0563 0.8887
vt 0.0924 0.9081
vt 0.1318 0.9244
vt 0.1732 0.9370
vt 0.2150 0.9454
vt 0.2555 0.9494
vt 0.2932 0.9488
vt 0.7320 0.9176
vt 1.0000 0.4991
vt 0.7631 0.9393
vt 0.7992 0.9586
vt 0.8386 0.9749
vt 0.8801 0.9875
vt 0.9218 0.9960
vt 0.9623 1.0000
vt 1.0000 0.9994
vt 0.7320 0.4997
vt 0.6943 0.4991
vt 0.3233 0.0255
vt 0.4138 0.3305
vt 0.1155 0.4230
vt 0.0795 0.3984
vt 0.0490 0.3672
vt 0.0250 0.3305
vt 0.0084 0.2897
vt 0.0000 0.2463
vt 0.0000 0.2022
vt 0.0084 0.1588
vt 0.0250 0.1180
vt 0.0490 0.0813
vt 0.1554 0.0086
vt 0.0795 0.0501
vt 0.1155 0.0255
vt 0.1978 0.0000
vt 0.2410 0.0000
vt 0.2834 0.0086
vt 0.3592 0.0501
vt 0.3898 0.0813
vt 0.4138 0.1180
vt 0.4303 0.1588
vt 0.4388 0.2022
vt 0.4388 0.2463
vt 0.4303 0.2897
vt 0.3898 0.3672
vt 0.3592 0.3984
vt 0.3233 0.4230
vt 0.2834 0.4399
vt 0.2410 0.4485
vt 0.1978 0.4485
vt 0.1554 0.4399
vn 0.0878 0.4455 -0.8910
vn 0.2599 0.4455 -0.8567
vn 0.4220 0.4455 -0.7896
vn 0.5680 0.4455 -0.6921
vn 0.6921 0.4455 -0.5680
vn 0.7896 0.4455 -0.4220
vn 0.8567 0.4455 -0.2599
vn 0.8910 0.4455 -0.0878
vn 0.8910 0.4455 0.0878
vn 0.8567 0.4455 0.2599
vn 0.7896 0.4455 0.4220
vn 0.6921 0.4455 0.5680
vn 0.5680 0.4455 0.6921
vn 0.4220 0.4455 0.7896
vn 0.2599 0.4455 0.8567
vn 0.0878 0.4455 0.8910
vn -0.0878 0.4455 0.8910
vn -0.2599 0.4455 0.8567
vn -0.4220 0.4455 0.7896
vn -0.5680 0.4455 0.6921
vn -0.6921 0.4455 0.5680
vn -0.7896 0.4455 0.4220
vn -0.8567 0.4455 0.2599
vn -0.8910 0.4455 0.0878
vn -0.8910 0.4455 -0.0878
vn -0.8567 0.4455 -0.2599
vn -0.7896 0.4455 -0.4220
vn -0.6921 0.4455 -0.5680
vn -0.5680 0.4455 -0.6921
vn -0.4220 0.4455 -0.7896
vn -0.2599 0.4455 -0.8567
vn -0.0878 0.4455 -0.8910
vn 0.0000 -1.0000 -0.0000
vn 0.0000 -1.0000 -0.0001
vn 0.0003 -1.0000 -0.0000
vn 0.0000 -1.0000 0.0001
s 1
f 1/1/1 2/2/1 3/3/1
f 3/3/2 2/2/2 4/4/2
f 4/4/3 2/2/3 5/5/3
f 5/5/4 2/2/4 6/6/4
f 6/6/5 2/2/5 7/7/5
f 7/7/6 2/2/6 8/8/6
f 8/9/7 2/10/7 9/11/7
f 9/11/8 2/10/8 10/12/8
f 10/12/9 2/10/9 11/13/9
f 11/13/10 2/10/10 12/14/10
f 12/14/11 2/10/11 13/15/11
f 13/15/12 2/10/12 14/16/12
f 14/16/13 2/10/13 15/17/13
f 15/17/14 2/10/14 16/18/14
f 16/18/15 2/10/15 17/19/15
f 17/20/16 2/21/16 18/22/16
f 18/22/17 2/21/17 19/23/17
f 19/23/18 2/21/18 20/24/18
f 20/24/19 2/21/19 21/25/19
f 21/25/20 2/21/20 22/26/20
f 22/26/21 2/21/21 23/27/21
f 23/27/22 2/21/22 24/28/22
f 24/28/23 2/21/23 25/29/23
f 25/30/24 2/31/24 26/32/24
f 26/32/25 2/31/25 27/33/25
f 27/33/26 2/31/26 28/34/26
f 28/34/27 2/31/27 29/35/27
f 29/35/28 2/31/28 30/36/28
f 30/36/29 2/31/29 31/37/29
f 31/37/30 2/31/30 32/38/30
f 32/39/31 2/2/31 33/40/31
f 33/40/32 2/2/32 1/1/32
f 17/41/33 25/42/33 33/43/33
f 33/43/33 1/44/34 3/45/33
f 3/45/33 4/46/35 5/47/33
f 5/47/33 6/48/36 7/49/33
f 7/49/33 8/50/33 9/51/33
f 9/51/33 10/52/33 13/53/33
f 11/54/33 12/55/33 13/53/33
f 13/53/33 14/56/33 17/41/33
f 15/57/34 16/58/33 17/41/33
f 17/41/33 18/59/33 19/60/33
f 19/60/33 20/61/36 21/62/33
f 21/62/33 22/63/34 23/64/33
f 23/64/33 24/65/33 25/42/33
f 25/42/33 26/66/33 27/67/33
f 27/67/33 28/68/33 25/42/33
f 29/69/33 30/70/34 31/71/33
f 31/71/33 32/72/34 33/43/33
f 33/43/33 3/45/33 5/47/33
f 5/47/33 7/49/33 33/43/33
f 10/52/33 11/54/33 13/53/33
f 14/56/33 15/57/34 17/41/33
f 17/41/33 19/60/33 21/62/33
f 21/62/33 23/64/33 17/41/33
f 25/42/33 28/68/33 29/69/33
f 29/69/33 31/71/33 33/43/33
f 33/43/33 7/49/33 9/51/33
f 9/51/33 13/53/33 33/43/33
f 17/41/33 23/64/33 25/42/33
f 25/42/33 29/69/33 33/43/33
f 33/43/33 13/53/33 17/41/33
o Cylinder
v 1.332006 26.843657 -0.391898
v 1.392712 18.405249 -0.385919
v 1.332006 18.405247 -0.391898
v 1.392711 26.843657 -0.385919
v 1.451084 18.405249 -0.368212
v 1.451083 26.843657 -0.368212
v 1.504881 18.405249 -0.339457
v 1.504880 26.843657 -0.339457
v 1.552033 18.405249 -0.300759
v 1.552032 26.843657 -0.300759
v 1.590731 18.405249 -0.253606
v 1.590731 26.843657 -0.253606
v 1.619486 18.405249 -0.199811
v 1.619485 26.843657 -0.199811
v 1.637193 18.405249 -0.141438
v 1.637193 26.843657 -0.141438
v 1.643172 18.405249 -0.080733
v 1.643171 26.843657 -0.080733
v 1.637193 18.405249 -0.020027
v 1.637193 26.843657 -0.020027
v 1.619486 18.405249 0.038346
v 1.619485 26.843657 0.038346
v 1.590731 18.405249 0.092142
v 1.590731 26.843657 0.092142
v 1.552033 18.405249 0.139296
v 1.552032 26.843657 0.139296
v 1.504881 18.405249 0.177994
v 1.504880 26.843657 0.177994
v 1.451084 18.405249 0.206749
v 1.451083 26.843657 0.206749
v 1.392712 18.405249 0.224456
v 1.392711 26.843657 0.224456
v 1.332006 18.405247 0.230435
v 1.332006 26.843657 0.230435
v 1.271300 18.405247 0.224456
v 1.271299 26.843657 0.224456
v 1.212928 18.405247 0.206748
v 1.212927 26.843657 0.206748
v 1.159131 18.405247 0.177994
v 1.159130 26.843657 0.177994
v 1.111978 18.405247 0.139296
v 1.111978 26.843657 0.139296
v 1.073280 18.405247 0.092143
v 1.073279 26.843657 0.092143
v 1.044526 18.405247 0.038346
v 1.044525 26.843657 0.038346
v 1.026818 18.405247 -0.020026
v 1.026818 26.843657 -0.020026
v 1.020840 18.405247 -0.080732
v 1.020839 26.843657 -0.080732
v 1.026818 18.405247 -0.141437
v 1.026818 26.843657 -0.141437
v 1.044526 18.405247 -0.199810
v 1.044525 26.843657 -0.199810
v 1.073280 18.405247 -0.253607
v 1.073280 26.843657 -0.253607
v 1.111978 18.405247 -0.300760
v 1.111978 26.843657 -0.300760
v 1.159131 18.405247 -0.339457
v 1.159131 26.843657 -0.339457
v 1.212928 18.405247 -0.368212
v 1.212928 26.843657 -0.368212
v 1.271300 18.405247 -0.385919
v 1.271300 26.843657 -0.385919
vt 0.3740 0.0000
vt 0.3946 1.0000
vt 0.3740 1.0000
vt 0.3946 0.0000
vt 0.4176 1.0000
vt 0.4176 0.0000
vt 0.4419 1.0000
vt 0.4419 0.0000
vt 0.4667 1.0000
vt 0.4667 0.0000
vt 0.4911 1.0000
vt 0.4911 0.0000
vt 0.5140 1.0000
vt 0.5140 0.0000
vt 0.5346 1.0000
vt 0.5346 0.0000
vt 0.5522 1.0000
vt 0.0176 0.0000
vt 0.0382 1.0000
vt 0.0176 1.0000
vt 0.0382 0.0000
vt 0.0611 1.0000
vt 0.0611 0.0000
vt 0.0855 1.0000
vt 0.0855 0.0000
vt 0.1103 1.0000
vt 0.1103 0.0000
vt 0.1346 1.0000
vt 0.1346 0.0000
vt 0.1576 1.0000
vt 0.1576 0.0000
vt 0.1782 1.0000
vt 0.1782 0.0000
vt 0.1958 1.0000
vt 0.7129 1.0000
vt 0.6922 0.0000
vt 0.7129 0.0000
vt 0.6922 1.0000
vt 0.6693 0.0000
vt 0.6693 1.0000
vt 0.6449 0.0000
vt 0.6449 1.0000
vt 0.6201 0.0000
vt 0.6201 1.0000
vt 0.5958 0.0000
vt 0.5958 1.0000
vt 0.5728 0.0000
vt 0.5728 1.0000
vt 0.5522 0.0000
vt 0.9824 0.0000
vt 1.0000 1.0000
vt 0.9824 1.0000
vt 0.1958 0.0000
vt 0.2164 1.0000
vt 0.1958 1.0000
vt 0.2164 0.0000
vt 0.2393 1.0000
vt 0.2393 0.0000
vt 0.2637 1.0000
vt 0.2637 0.0000
vt 0.2885 1.0000
vt 0.2885 0.0000
vt 0.3129 1.0000
vt 0.3129 0.0000
vt 0.3358 1.0000
vt 0.9600 0.1208
vt 0.8021 0.1454
vt 0.7177 0.0994
vt 0.3358 0.0000
vt 0.3564 1.0000
vt 0.3564 0.0000
vt 0.9506 0.0541
vt 0.8756 0.0720
vt 0.7585 0.0652
vt 0.0000 0.0000
vt 0.1958 0.0000
vt 0.5522 1.0000
vt 0.9824 1.0000
vt 0.9649 1.0000
vt 0.9649 0.0000
vt 0.7272 0.0927
vt 0.7410 0.0867
vt 0.7586 0.0816
vt 0.7792 0.0776
vt 0.8021 0.0748
vt 0.8265 0.0734
vt 0.8513 0.0734
vt 0.8756 0.0748
vt 0.8986 0.0776
vt 0.9368 0.0867
vt 0.9192 0.0816
vt 0.9506 0.0927
vt 0.9601 0.0994
vt 0.9649 0.1065
vt 0.9649 0.1137
vt 0.9505 0.1275
vt 0.9368 0.1335
vt 0.9192 0.1386
vt 0.8986 0.1426
vt 0.8756 0.1454
vt 0.8513 0.1468
vt 0.8265 0.1468
vt 0.7792 0.1426
vt 0.7585 0.1386
vt 0.7410 0.1335
vt 0.7272 0.1275
vt 0.7177 0.1208
vt 0.7129 0.1137
vt 0.7129 0.1065
vt 0.7410 0.0601
vt 0.7129 0.0403
vt 0.7272 0.0541
vt 0.7177 0.0474
vt 0.7129 0.0331
vt 0.7177 0.0260
vt 0.7272 0.0193
vt 0.7410 0.0133
vt 0.7585 0.0082
vt 0.7792 0.0042
vt 0.8021 0.0014
vt 0.8265 0.0000
vt 0.8513 0.0000
vt 0.8756 0.0014
vt 0.8986 0.0042
vt 0.9192 0.0082
vt 0.9368 0.0133
vt 0.9506 0.0193
vt 0.9601 0.0260
vt 0.9649 0.0331
vt 0.9649 0.0403
vt 0.9601 0.0474
vt 0.9368 0.0601
vt 0.9192 0.0652
vt 0.8986 0.0692
vt 0.8513 0.0734
vt 0.8265 0.0734
vt 0.8021 0.0720
vt 0.7792 0.0692
vn 0.0980 0.0000 -0.9952
vn 0.2903 0.0000 -0.9569
vn 0.4714 0.0000 -0.8819
vn 0.6344 0.0000 -0.7730
vn 0.7730 0.0000 -0.6344
vn 0.8819 0.0000 -0.4714
vn 0.9569 0.0000 -0.2903
vn 0.9952 0.0000 -0.0980
vn 0.9952 0.0000 0.0980
vn 0.9569 0.0000 0.2903
vn 0.8819 0.0000 0.4714
vn 0.7730 0.0000 0.6344
vn 0.6344 0.0000 0.7730
vn 0.4714 0.0000 0.8819
vn 0.2903 0.0000 0.9569
vn 0.0980 0.0000 0.9952
vn -0.0980 -0.0000 0.9952
vn -0.2903 -0.0000 0.9569
vn -0.4714 -0.0000 0.8819
vn -0.6344 -0.0000 0.7730
vn -0.7730 -0.0000 0.6344
vn -0.8819 -0.0000 0.4714
vn -0.9569 -0.0000 0.2903
vn -0.9952 -0.0000 0.0980
vn -0.9952 -0.0000 -0.0980
vn -0.9569 -0.0000 -0.2903
vn -0.8819 -0.0000 -0.4714
vn -0.7730 0.0000 -0.6344
vn -0.6344 0.0000 -0.7730
vn -0.4714 0.0000 -0.8819
vn 0.0000 1.0000 -0.0000
vn -0.2903 0.0000 -0.9569
vn -0.0980 0.0000 -0.9952
vn 0.0000 -1.0000 0.0000
vn 0.0000 1.0000 -0.0003
vn 0.0000 1.0000 0.0003
vn 0.0000 1.0000 -0.0001
vn 0.0003 1.0000 0.0002
vn 0.0000 -1.0000 0.0001
vn 0.0000 -1.0000 -0.0001
vn 0.0000 -1.0000 -0.0002
vn 0.0000 -1.0000 0.0002
vn 0.0006 -1.0000 0.0000
vn 0.0000 -1.0000 0.0003
vn 0.0003 -1.0000 -0.0002
vn 0.0007 -1.0000 -0.0000
vn 0.0005 -1.0000 -0.0000
vn 0.0000 -1.0000 -0.0003
s 1
f 34/73/37 35/74/37 36/75/37
f 37/76/38 38/77/38 35/74/38
f 39/78/39 40/79/39 38/77/39
f 41/80/40 42/81/40 40/79/40
f 43/82/41 44/83/41 42/81/41
f 45/84/42 46/85/42 44/83/42
f 47/86/43 48/87/43 46/85/43
f 49/88/44 50/89/44 48/87/44
f 51/90/45 52/91/45 50/92/45
f 53/93/46 54/94/46 52/91/46
f 55/95/47 56/96/47 54/94/47
f 57/97/48 58/98/48 56/96/48
f 59/99/49 60/100/49 58/98/49
f 61/101/50 62/102/50 60/100/50
f 63/103/51 64/104/51 62/102/51
f 65/105/52 66/106/52 64/104/52
f 67/107/53 68/108/53 66/109/53
f 69/110/54 70/111/54 68/108/54
f 71/112/55 72/113/55 70/111/55
f 73/114/56 74/115/56 72/113/56
f 75/116/57 76/117/57 74/115/57
f 77/118/58 78/119/58 76/117/58
f 79/120/59 80/121/59 78/119/59
f 81/122/60 82/123/60 80/124/60
f 83/125/61 84/126/61 82/127/61
f 85/128/62 86/129/62 84/126/62
f 87/130/63 88/131/63 86/129/63
f 89/132/64 90/133/64 88/131/64
f 91/134/65 92/135/65 90/133/65
f 93/136/66 94/137/66 92/135/66
f 71/138/67 55/139/67 39/140/67
f 95/141/68 96/142/68 94/137/68
f 97/143/69 36/75/69 96/142/69
f 78/144/70 86/145/70 96/146/70
f 34/73/37 37/76/37 35/74/37
f 37/76/38 39/78/38 38/77/38
f 39/78/39 41/80/39 40/79/39
f 41/80/40 43/82/40 42/81/40
f 43/82/41 45/84/41 44/83/41
f 45/84/42 47/86/42 46/85/42
f 47/86/43 49/88/43 48/87/43
f 49/147/44 51/90/44 50/92/44
f 51/90/45 53/93/45 52/91/45
f 53/93/46 55/95/46 54/94/46
f 55/95/47 57/97/47 56/96/47
f 57/97/48 59/99/48 58/98/48
f 59/99/49 61/101/49 60/100/49
f 61/101/50 63/103/50 62/102/50
f 63/103/51 65/105/51 64/104/51
f 65/105/52 67/148/52 66/106/52
f 67/107/53 69/110/53 68/108/53
f 69/110/54 71/112/54 70/111/54
f 71/112/55 73/114/55 72/113/55
f 73/114/56 75/116/56 74/115/56
f 75/116/57 77/118/57 76/117/57
f 77/118/58 79/120/58 78/119/58
f 79/120/59 81/149/59 80/121/59
f 81/150/60 83/151/60 82/152/60
f 83/125/61 85/128/61 84/126/61
f 85/128/62 87/130/62 86/129/62
f 87/130/63 89/132/63 88/131/63
f 89/132/64 91/134/64 90/133/64
f 91/134/65 93/136/65 92/135/65
f 93/136/66 95/141/66 94/137/66
f 39/140/67 37/153/71 34/154/67
f 34/154/67 97/155/71 95/156/67
f 95/156/67 93/157/71 91/158/67
f 91/158/67 89/159/67 95/156/67
f 87/160/67 85/161/67 81/162/67
f 83/163/67 81/162/67 85/161/67
f 79/164/67 77/165/72 75/166/67
f 75/166/67 73/167/67 71/138/67
f 71/138/67 69/168/67 67/169/73
f 67/169/73 65/170/72 63/171/67
f 63/171/67 61/172/67 59/173/67
f 59/173/67 57/174/74 55/139/67
f 55/139/67 53/175/67 51/176/67
f 51/176/67 49/177/67 47/178/67
f 47/178/67 45/179/71 43/180/67
f 43/180/67 41/181/67 39/140/67
f 39/140/67 34/154/67 95/156/67
f 95/156/67 89/159/67 87/160/67
f 87/160/67 81/162/67 79/164/67
f 79/164/67 75/166/67 71/138/67
f 71/138/67 67/169/73 63/171/67
f 63/171/67 59/173/67 71/138/67
f 55/139/67 51/176/67 47/178/67
f 47/178/67 43/180/67 55/139/67
f 39/140/67 95/156/67 87/160/67
f 87/160/67 79/164/67 39/140/67
f 71/138/67 59/173/67 55/139/67
f 55/139/67 43/180/67 39/140/67
f 39/140/67 79/164/67 71/138/67
f 95/141/68 97/143/68 96/142/68
f 97/143/69 34/73/69 36/75/69
f 96/146/70 36/182/75 40/183/76
f 35/184/77 38/185/77 40/183/76
f 40/183/76 42/186/78 44/187/70
f 44/187/70 46/188/70 48/189/70
f 48/189/70 50/190/79 52/191/70
f 52/191/70 54/192/70 56/193/70
f 56/193/70 58/194/77 60/195/70
f 60/195/70 62/196/70 56/193/70
f 64/197/70 66/198/80 68/199/70
f 68/199/70 70/200/70 64/197/70
f 72/201/70 74/202/81 76/203/78
f 76/203/78 78/144/70 72/201/70
f 80/204/82 82/205/83 78/144/70
f 84/206/82 86/145/70 82/205/83
f 88/207/70 90/208/70 86/145/70
f 92/209/70 94/210/84 96/146/70
f 36/182/75 35/184/77 40/183/76
f 40/183/76 44/187/70 96/146/70
f 48/189/70 52/191/70 56/193/70
f 56/193/70 62/196/70 64/197/70
f 64/197/70 70/200/70 72/201/70
f 72/201/70 78/144/70 64/197/70
f 82/205/83 86/145/70 78/144/70
f 90/208/70 92/209/70 96/146/70
f 96/146/70 44/187/70 48/189/70
f 48/189/70 56/193/70 64/197/70
f 64/197/70 78/144/70 48/189/70
f 86/145/70 90/208/70 96/146/70
f 96/146/70 48/189/70 78/144/70
