# Blender v2.77 (sub 0) OBJ File: 'robot.blend'
# www.blender.org
mtllib battery.mtl
o 1
v 0.207248 3.504341 -3.568870
v 0.207250 10.504341 3.431130
v 0.207249 10.504341 -3.568870
v 3.207249 10.504341 -3.568870
v 0.207249 10.504341 -3.568870
v 0.207250 10.504341 3.431130
v 3.207248 3.504341 -3.568870
v 0.207248 3.504341 -3.568870
v 0.207249 10.504341 -3.568870
v 3.207249 10.504341 -3.568870
v 0.207248 3.504341 3.431130
v 3.207250 10.504341 3.431130
v 0.207250 10.504341 3.431130
v 0.207248 3.504341 3.431130
v 3.207250 10.504341 3.431130
v 3.207248 3.504341 3.431130
v 0.207248 3.504341 3.431130
v 0.207248 3.504341 -3.568870
v 3.207248 3.504341 3.431130
v 3.207248 3.504341 -3.568870
v 3.207248 3.504341 3.431130
v 3.207248 3.504341 -3.568870
v 3.207249 10.504341 -3.568870
v 3.207250 10.504341 3.431130
vt 1.0000 0.0000
vt 0.0000 1.0000
vt 1.0000 1.0000
vt 1.0000 1.0000
vt 1.0000 1.0000
vt 0.0000 1.0000
vt 1.0000 0.0000
vt 1.0000 0.0000
vt 1.0000 1.0000
vt 1.0000 1.0000
vt 0.0000 0.0000
vt 0.0000 1.0000
vt 0.0000 1.0000
vt 0.0000 0.0000
vt 0.0000 1.0000
vt 0.0000 0.0000
vt 0.0000 0.0000
vt 1.0000 0.0000
vt 0.0000 0.0000
vt 1.0000 0.0000
vt 0.0000 0.0000
vt 1.0000 0.0000
vt 1.0000 1.0000
vt 0.0000 1.0000
vn -1.0000 0.0000 0.0000
vn 0.0000 1.0000 -0.0000
vn -0.0000 0.0000 -1.0000
vn 0.0000 -0.0000 1.0000
vn -0.0000 -1.0000 0.0000
vn 1.0000 -0.0000 -0.0000
usemtl DEFAULT_MTL
s 1
f 1/1/1 2/2/1 3/3/1
f 4/4/2 5/5/2 6/6/2
f 7/7/3 8/8/3 9/9/3
f 7/7/3 9/9/3 10/10/3
f 1/1/1 11/11/1 2/2/1
f 12/12/4 13/13/4 14/14/4
f 15/15/2 4/4/2 6/6/2
f 16/16/5 17/17/5 18/18/5
f 12/12/4 14/14/4 19/19/4
f 16/16/5 18/18/5 20/20/5
f 21/21/6 22/22/6 23/23/6
f 24/24/6 21/21/6 23/23/6
